<svg width="166" height="203" viewBox="0 0 166 203" fill="none" xmlns="http://www.w3.org/2000/svg">
<path fill-rule="evenodd" clip-rule="evenodd" d="M17.5001 52.4999C17.5001 33.17 33.1701 17.5 52.5 17.5C69.897 17.5 84 31.603 84 49V114.5C84 124.717 92.2827 133 102.5 133C112.717 133 121 124.717 121 114.5V94.5V84.5C121 78.1487 126.149 73 132.5 73V56C116.76 56 104 68.7599 104 84.5V94.5V114.5C104 115.328 103.328 116 102.5 116C101.672 116 101 115.328 101 114.5V49C101 22.2142 79.2858 0.5 52.5 0.5C23.7813 0.5 0.500122 23.7811 0.500122 52.4999V177.5C0.500122 182.194 4.3057 186 9.00012 186C13.6945 186 17.5001 182.194 17.5001 177.5V52.4999ZM165.5 44C165.5 39.3056 161.694 35.5 157 35.5C152.306 35.5 148.5 39.3056 148.5 44V142C148.5 166.024 129.024 185.5 105 185.5C80.9756 185.5 61.5 166.024 61.5 142V100.379C61.5 95.6849 57.6944 91.8793 53 91.8793C48.3056 91.8793 44.5 95.6849 44.5 100.379V142C44.5 175.413 71.5868 202.5 105 202.5C138.413 202.5 165.5 175.413 165.5 142V44Z" fill="url(#paint0_linear)"/>
<defs>
<linearGradient id="paint0_linear" x1="14.2342" y1="5.05936" x2="212.529" y2="141.299" gradientUnits="userSpaceOnUse">
<stop stop-color="#92FFC0"/>
<stop offset="1" stop-color="#002661"/>
</linearGradient>
</defs>
</svg>
